# xmcd
#
# Track frame offsets: 
#        150
#        17586
#        37691
#        57901
#        80468
#        95737
#        122203
#        141030
#        158903
#        176139
#        190170
#        206392
#
# Disc length: 3097 seconds
#
# Revision: 2
# Processed by: cddbd v1.5.2PL0 Copyright (c) Steve Scherf et al.
# Submitted via: ExactAudioCopyFreeDBPlugin 1.0
#
DISCID=9a0c170c
DTITLE=Joni Mitchell - Both Sides Now
DYEAR=2000
DGENRE=Blues
TTITLE0=You're My Thrill
TTITLE1=At Last
TTITLE2=Comes Love
TTITLE3=You've Changed
TTITLE4=Answer Me, My Love
TTITLE5=A Case Of You
TTITLE6=Don't Go To Strangers
TTITLE7=Sometimes I'm Happy
TTITLE8=Don't Worry 'Bout Me
TTITLE9=Stormy Weather
TTITLE10=I Wish I Were in Love Again
TTITLE11=Both Sides Now
EXTD=
EXTT0=
EXTT1=
EXTT2=
EXTT3=
EXTT4=
EXTT5=
EXTT6=
EXTT7=
EXTT8=
EXTT9=
EXTT10=
EXTT11=
PLAYORDER=
